<?xml version="1.0" standalone="no"?>
<!DOCTYPE svg PUBLIC "-//W3C//DTD SVG 20010904//EN"
 "http://www.w3.org/TR/2001/REC-SVG-20010904/DTD/svg10.dtd">
<svg version="1.0" xmlns="http://www.w3.org/2000/svg"
 width="260.000000pt" height="260.000000pt" viewBox="0 0 260.000000 260.000000"
 preserveAspectRatio="xMidYMid meet">
<metadata>
Created by potrace 1.14, written by Peter Selinger 2001-2017
</metadata>
<g transform="translate(0.000000,260.000000) scale(0.100000,-0.100000)"
fill="#000000" stroke="none">
<path d="M350 2400 c0 -15 -7 -20 -25 -20 l-25 0 0 -1005 0 -1005 50 0 c43 0
50 -3 50 -20 0 -20 7 -20 550 -20 l550 0 0 -95 0 -95 325 0 325 0 0 50 c0 47
2 50 25 50 14 0 25 6 25 14 0 14 -49 26 -112 26 l-38 0 0 45 c0 41 2 45 25 45
24 0 25 2 25 70 l0 70 -50 0 c-43 0 -50 3 -50 20 0 15 7 20 25 20 20 0 25 5
25 25 0 20 -5 25 -25 25 -18 0 -25 -5 -25 -20 0 -15 -7 -20 -25 -20 -23 0 -25
4 -25 45 0 41 2 45 25 45 18 0 25 5 25 20 0 15 -7 20 -25 20 -18 0 -25 -5 -25
-20 0 -15 -7 -20 -25 -20 -23 0 -25 4 -25 45 0 41 2 45 25 45 24 0 25 2 25 65
0 63 1 65 25 65 l25 0 0 140 0 140 -25 0 c-25 0 -25 1 -25 90 0 89 0 90 -25
90 l-25 0 0 160 0 160 25 0 c23 0 25 4 25 45 0 41 2 45 25 45 23 0 25 4 25 45
0 41 2 45 25 45 24 0 25 2 25 65 0 63 1 65 25 65 23 0 25 3 25 50 0 47 2 50
25 50 23 0 25 4 25 45 0 41 2 45 25 45 23 0 25 4 25 45 0 41 2 45 25 45 23 0
25 4 25 45 0 41 2 45 25 45 23 0 25 4 25 45 l0 45 -975 0 c-968 0 -975 0 -975
-20z"/>
</g>
</svg>
